<?xml version="1.0" ?><svg id="Layer_1" style="enable-background:new 0 0 50 50;" version="1.1" viewBox="0 0 50 50" xml:space="preserve" xmlns="http://www.w3.org/2000/svg" xmlns:xlink="http://www.w3.org/1999/xlink"><style type="text/css">
	.st0{fill:#F0C4DB;}
	.st1{fill:#FF9D9C;}
	.st2{fill:#9BEAF9;}
	.st3{fill:#E9F4BC;}
	.st4{fill:#505050;}
	.st5{fill:#FEBECC;}
	.st6{fill:#FFFFFF;}
	.st7{fill:#FDE4A1;}
	.st8{fill:#FEE7B5;}
	.st9{fill:#CDF6FC;}
	.st10{fill:#F2C6DD;}
	.st11{opacity:0.1;}
</style><g><path class="st5" d="M0.94,28.03c2.43,0.98,5.08,1.54,7.87,1.54c11.6,0,21-9.4,21-21c0-2.62-0.5-5.13-1.38-7.44H0.94V28.03z"/><g><g><path class="st6" d="M47.83,31h-6.34v8.32c0,1.23-0.99,2.23-2.23,2.23h-8.72v6.59H13.57V32.82c-3.92-3.37-6.32-8.46-6.05-14.09     C7.95,10,14.95,2.81,23.67,2.17c10.02-0.73,18.4,7,18.75,16.76L47.83,31z"/><path class="st2" d="M37.22,19.8c0,3.87-1.73,7.34-4.47,9.68c-2.22,1.89-5.1,3.03-8.24,3.03c-3.14,0-6.02-1.14-8.24-3.03     c-2.73-2.34-4.47-5.8-4.47-9.68c0-3.87,1.73-7.34,4.47-9.67c2.22-1.89,5.1-3.03,8.24-3.03c3.14,0,6.02,1.14,8.24,3.03     C35.49,12.46,37.22,15.92,37.22,19.8z"/></g><g><circle class="st4" cx="14.04" cy="36.56" r="0.75"/><path class="st4" d="M48.99,30.69l-5.35-11.94c-0.09-2.02-0.52-4-1.26-5.89l-0.01-0.02c-1.34-3.35-3.62-6.2-6.59-8.25     c-3.41-2.36-7.45-3.48-11.7-3.17c-4.4,0.33-8.54,2.27-11.66,5.47c-3.12,3.2-4.96,7.39-5.17,11.8c-0.02,0.27-0.03,0.56-0.03,0.91     c0,5.17,2.22,10.11,6.07,13.56v1.4c0,0.41,0.34,0.75,0.75,0.75c0.42,0,0.75-0.34,0.75-0.75c0-0.01,0-0.01,0-0.02v-1.72     c0-0.22-0.09-0.43-0.26-0.57c-3.69-3.18-5.81-7.79-5.81-12.65c0-0.3,0.01-0.57,0.02-0.83c0.4-8.29,7.19-15.25,15.45-15.85     c0.41-0.03,0.83-0.05,1.26-0.05c6.86,0,12.95,4.12,15.51,10.48l0.01,0.04c0,0,0,0.01,0.01,0.01c0.7,1.77,1.1,3.64,1.17,5.57     l0.06,0.27l4.93,11h-5.18c-0.2,0-0.39,0.08-0.53,0.22c-0.14,0.14-0.22,0.33-0.22,0.53v8.32c0,0.81-0.66,1.47-1.47,1.47h-8.72     c-0.2,0-0.39,0.08-0.53,0.22s-0.22,0.34-0.22,0.53v5.84H14.79v-8.81c0-0.41-0.33-0.75-0.75-0.75c-0.41,0-0.75,0.34-0.75,0.75     v9.56c0,0.2,0.08,0.39,0.22,0.53c0.14,0.14,0.34,0.22,0.53,0.22h16.98c0.2,0,0.39-0.08,0.53-0.22c0.14-0.14,0.22-0.33,0.22-0.53     v-5.84h7.97c1.63,0,2.97-1.33,2.97-2.97v-7.57h5.59c0.26,0,0.5-0.13,0.63-0.34C49.07,31.19,49.09,30.91,48.99,30.69z"/><path class="st4" d="M33.72,30.05c3.01-2.57,4.73-6.3,4.73-10.25c0-3.94-1.72-7.68-4.73-10.25c-2.43-2.07-5.53-3.21-8.73-3.21     s-6.3,1.14-8.73,3.21c-3,2.57-4.73,6.3-4.73,10.25c0,3.94,1.72,7.68,4.73,10.25c2.43,2.07,5.53,3.21,8.73,3.21     S31.28,32.12,33.72,30.05z M29.81,28.22c0.77,0.34,1.51,0.76,2.2,1.26c-1.14,0.83-2.42,1.44-3.77,1.83     c0.32-0.43,0.63-0.93,0.91-1.49C29.39,29.32,29.61,28.78,29.81,28.22z M27.81,29.14c-0.62,1.26-1.34,2.09-2.07,2.44v-4.35     c0.91,0.06,1.8,0.22,2.66,0.47C28.22,28.21,28.02,28.7,27.81,29.14z M25.74,25.72v-5.18h3.86c-0.05,2.05-0.31,4.01-0.76,5.72     C27.84,25.97,26.8,25.78,25.74,25.72z M25.74,19.05v-5.18c1.06-0.06,2.1-0.24,3.1-0.54c0.45,1.71,0.71,3.67,0.76,5.72H25.74z      M25.74,12.37V8.02c0.73,0.34,1.44,1.18,2.07,2.44c0.22,0.44,0.41,0.93,0.59,1.44C27.54,12.16,26.64,12.31,25.74,12.37z      M29.15,9.79c-0.28-0.56-0.58-1.06-0.91-1.5c1.35,0.38,2.63,1,3.77,1.83c-0.69,0.5-1.43,0.92-2.2,1.26     C29.61,10.82,29.39,10.28,29.15,9.79z M20.17,11.38c-0.77-0.34-1.51-0.76-2.2-1.26c1.14-0.83,2.42-1.45,3.77-1.83     c-0.32,0.43-0.63,0.93-0.91,1.5C20.59,10.28,20.37,10.82,20.17,11.38z M22.17,10.46c0.62-1.26,1.34-2.09,2.07-2.44v4.35     c-0.91-0.06-1.8-0.22-2.66-0.47C21.76,11.39,21.95,10.9,22.17,10.46z M24.24,13.87v5.18h-3.86c0.05-2.05,0.31-4.01,0.76-5.72     C22.14,13.63,23.18,13.81,24.24,13.87z M24.24,20.55v5.18c-1.06,0.06-2.1,0.24-3.1,0.54c-0.45-1.71-0.71-3.67-0.76-5.72H24.24z      M24.24,27.22v4.35c-0.73-0.34-1.44-1.18-2.07-2.43c-0.22-0.44-0.41-0.93-0.59-1.45C22.44,27.44,23.33,27.28,24.24,27.22z      M20.83,29.81c0.28,0.56,0.58,1.06,0.91,1.49c-1.35-0.38-2.63-1-3.77-1.83c0.69-0.5,1.43-0.92,2.2-1.26     C20.37,28.78,20.59,29.32,20.83,29.81z M33.18,28.49c-0.9-0.7-1.89-1.27-2.93-1.71c0.5-1.87,0.79-4.01,0.85-6.23h5.81     C36.72,23.57,35.39,26.4,33.18,28.49z M36.91,19.05H31.1c-0.05-2.23-0.35-4.36-0.85-6.23c1.04-0.44,2.02-1.01,2.93-1.71     C35.39,13.2,36.72,16.03,36.91,19.05z M16.79,11.11c0.9,0.69,1.89,1.27,2.93,1.71c-0.5,1.87-0.79,4-0.85,6.23h-5.81     C13.26,16.03,14.59,13.2,16.79,11.11z M13.07,20.55h5.81c0.05,2.22,0.35,4.36,0.85,6.23c-1.04,0.44-2.02,1.02-2.93,1.71     C14.59,26.4,13.26,23.57,13.07,20.55z"/></g></g></g></svg>