<?xml version="1.0" ?><!DOCTYPE svg  PUBLIC '-//W3C//DTD SVG 1.1//EN'  'http://www.w3.org/Graphics/SVG/1.1/DTD/svg11.dtd'><svg height="0.82535in" style="shape-rendering:geometricPrecision; text-rendering:geometricPrecision; image-rendering:optimizeQuality; fill-rule:evenodd; clip-rule:evenodd" version="1.1" viewBox="0 0 468 373" width="1.03763in" xml:space="preserve" xmlns="http://www.w3.org/2000/svg" xmlns:xlink="http://www.w3.org/1999/xlink"><defs><style type="text/css">
   <![CDATA[
    .fil1 {fill:#FEFEFE}
    .fil0 {fill:#201E1E}
   ]]>
  </style></defs><g id="Layer_x0020_1"><g id="_468987112"><ellipse class="fil0" cx="234" cy="303" rx="234" ry="70"/><path class="fil0" d="M404 172c1,-8 1,-17 0,-26 4,-4 5,-11 1,-14 -27,-21 -73,-22 -112,-19 -1,-36 -4,-74 -15,-106 -3,-8 -13,-9 -17,-3 -1,0 -1,-1 -2,-1 -15,-2 -33,0 -48,1 -5,0 -7,3 -8,7 -1,-1 -3,-1 -4,-1 -1,0 -1,0 -2,1 -3,-1 -7,0 -9,4 -13,32 -16,71 -15,107 -28,2 -56,4 -84,3 -3,-4 -10,-5 -15,-1 -2,0 -3,0 -4,0 -5,-1 -7,8 -1,9 0,0 0,0 0,0 -4,29 -8,57 0,85 0,1 -1,1 -1,2 -1,1 0,3 1,4 13,10 39,1 54,-1 17,-1 35,-3 52,-4 1,36 4,71 7,107 0,3 1,7 5,9 15,5 30,7 46,6 12,0 30,2 40,-6 2,-1 3,-3 4,-5 4,1 8,-1 8,-6 4,-36 5,-72 6,-108 33,0 65,3 96,8 2,1 4,2 6,1 11,1 16,-13 9,-19 1,-11 2,-23 2,-34z"/><path class="fil1" d="M381 143c-25,-11 -63,-10 -87,-8l-23 1 0 -23c0,-28 -2,-58 -10,-86l-6 -2c0,0 -1,0 -1,0 -10,-1 -21,-1 -32,0l-2 8 -15 0c-10,27 -11,60 -11,89l1 21 -21 1c-28,2 -56,4 -85,3 -2,19 -5,40 0,59 10,0 27,-4 32,-4 18,-2 35,-3 52,-5l23 -1 1 22c1,33 3,66 6,99 10,2 20,3 30,3 4,0 19,0 25,-2l5 -14 2 0c2,-29 4,-59 4,-89l1 -22 22 1c29,0 59,2 88,7 2,-10 2,-20 2,-30 1,-6 1,-15 0,-21l-1 -7z"/></g></g></svg>