<?xml version="1.0" standalone="no"?><!DOCTYPE svg PUBLIC "-//W3C//DTD SVG 1.1//EN" "http://www.w3.org/Graphics/SVG/1.1/DTD/svg11.dtd"><svg t="1588947426201" class="icon" viewBox="0 0 1024 1024" version="1.1" xmlns="http://www.w3.org/2000/svg" p-id="1953" xmlns:xlink="http://www.w3.org/1999/xlink" width="200" height="200"><defs><style type="text/css"></style></defs><path d="M64 737.109v-477.49c0.15-10.31 8.62-18.55 18.93-18.4 4.79 0.07 9.38 1.98 12.8 5.33L512 662.449l416.27-416.27c7.36-7.22 19.18-7.1 26.4 0.26 3.36 3.42 5.27 8.01 5.33 12.8v477.87c0 61.86-50.14 112-112 112H176c-61.86 0-112-50.14-112-112z" fill="#F16A54" p-id="1954"></path><path d="M227.15 849.109h495.04l-106.77-290.08L512 662.449l-157.92-157.92-126.93 344.58z" fill="#C65246" p-id="1955"></path><path d="M494.45 187.189l-243.79 661.92h522.67l-243.79-661.92c-3.52-9.69-14.22-14.69-23.91-11.18-5.2 1.89-9.29 5.99-11.18 11.18z" fill="#F4B147" p-id="1956"></path></svg>