<?xml version="1.0" standalone="no"?><!DOCTYPE svg PUBLIC "-//W3C//DTD SVG 1.1//EN" "http://www.w3.org/Graphics/SVG/1.1/DTD/svg11.dtd"><svg t="1588947392942" class="icon" viewBox="0 0 1024 1024" version="1.1" xmlns="http://www.w3.org/2000/svg" p-id="1661" xmlns:xlink="http://www.w3.org/1999/xlink" width="200" height="200"><defs><style type="text/css"></style></defs><path d="M511.439 512m-317.6 0a317.6 317.6 0 1 0 635.2 0 317.6 317.6 0 1 0-635.2 0Z" fill="#0B70DD" p-id="1662"></path><path d="M452.149 701.15a1120.705 1120.705 0 0 0 256.55 33.52h30a317.822 317.822 0 0 0 54.7-75.87 844.166 844.166 0 0 1-324.66-25.05 948.483 948.483 0 0 1-270.67-105.87l-3.53-2.47c1.12 30.76 6.71 61.19 16.59 90.34a1112.435 1112.435 0 0 0 241.02 85.4z" fill="#0D67B7" p-id="1663"></path><path d="M844.569 455.89l-23.64-14.11c5.34 23.15 8.06 46.83 8.12 70.58v17.29c52.23 37.06 63.17 64.23 60.7 74.11-8.47 35.29-158.09 70.58-402.3 11.29a948.89 948.89 0 0 1-270.67-105.87c-70.58-44.11-83.99-76.93-81.52-87.87s35.29-30.35 87.52-38.11a317.81 317.81 0 0 1 46.93-74.82c-105.87 4.24-187.74 33.17-203.26 95.99-9.17 37.06 3.18 95.99 112.57 164.44a1019.406 1019.406 0 0 0 291.49 115.4 1120.153 1120.153 0 0 0 256.55 33.52c120.69 0 214.56-28.59 230.79-96.69 8.47-38.46-3.89-96.69-113.28-165.15z" fill="#3395FF" p-id="1664"></path><path d="M203.009 385.66l18.7-3.18a317.81 317.81 0 0 1 46.93-74.82 317.794 317.794 0 0 0-65.63 78z" fill="#2A85D8" p-id="1665"></path></svg>