<?xml version="1.0" standalone="no"?><!DOCTYPE svg PUBLIC "-//W3C//DTD SVG 1.1//EN" "http://www.w3.org/Graphics/SVG/1.1/DTD/svg11.dtd"><svg t="1588947420116" class="icon" viewBox="0 0 1024 1024" version="1.1" xmlns="http://www.w3.org/2000/svg" p-id="1806" xmlns:xlink="http://www.w3.org/1999/xlink" width="200" height="200"><defs><style type="text/css"></style></defs><path d="M178.469 720.29c-23.69 0.14-43-18.95-43.14-42.64a42.863 42.863 0 0 1 12.69-30.7l60.48-60.48c15.4-18 42.48-20.11 60.48-4.71 18 15.4 20.11 42.48 4.71 60.48-1.45 1.7-3.02 3.27-4.71 4.71l-60.48 60.48a42.967 42.967 0 0 1-30.03 12.86z" fill="#BF4621" p-id="1807"></path><path d="M254.819 933.04c-23.69 0.14-43-18.95-43.14-42.64a42.863 42.863 0 0 1 12.69-30.7l60.48-60.48c18-15.4 45.08-13.29 60.48 4.71 13.73 16.05 13.73 39.71 0 55.76l-60.48 60.48a42.85 42.85 0 0 1-30.03 12.87zM83.239 486.09c-25.09-25.12-25.09-65.82 0-90.94l30.46-30.45a107.658 107.658 0 0 1 60.48-30.45l177.15-25.31 106.81-106.81c88.33-88.76 208.5-138.51 333.72-138.12h124.82c23.69 0 42.89 19.21 42.89 42.89v125.68c0.37 125.22-49.36 245.39-138.12 333.72l-106.81 106.81-25.31 177.15a107.61 107.61 0 0 1-30.46 60.48l-30.46 30.45c-25.12 25.09-65.82 25.09-90.94 0l-454.23-455.1z" fill="#EF5D29" p-id="1808"></path><path d="M637.869 497.67c-59.23 0-107.24-48.02-107.24-107.24s48.01-107.24 107.24-107.24 107.24 48.02 107.24 107.24-48.02 107.24-107.24 107.24z m0-171.58c-35.54 0-64.34 28.81-64.34 64.34s28.81 64.34 64.34 64.34 64.34-28.81 64.34-64.34-28.81-64.34-64.34-64.34z" fill="#BF4621" p-id="1809"></path><path d="M659.309 476.22c-59.23 0-107.24-48.02-107.24-107.24 0-59.22 48.01-107.24 107.24-107.24s107.24 48.02 107.24 107.24c0 59.23-48.01 107.24-107.24 107.24z m0-171.58c-35.54 0-64.34 28.81-64.34 64.34s28.81 64.34 64.34 64.34 64.34-28.81 64.34-64.34c0.01-35.53-28.8-64.34-64.34-64.34z" fill="#EAB82D" p-id="1810"></path></svg>